# xmcd CD database file
#
# Track frame offsets:
#	150
#	16721
#	34531
#	55114
#	76505
#	99324
#	116446
#	135239
#	155229
#	174015
#	193473
#	214236
#
# Disc length: 3150 seconds
#
# Revision: 1
# Processed by: cddbd v1.5.2PL0 Copyright (c) Steve Scherf et al.
# Submitted via: CDex 1.51
#
DISCID=8a0c4c0c
DTITLE=Cultured Pearls - Space Age Honeymoon
DYEAR=1997
DGENRE=Jazz
TTITLE0=Mr. Lonely
TTITLE1=Sugar Sugar Honey
TTITLE2=Space Age Honeymoon
TTITLE3=You're Fired
TTITLE4=I Lost My Man
TTITLE5=Hatecycle
TTITLE6=Fly
TTITLE7=Silverball
TTITLE8=Dancefloor
TTITLE9=Bubbles
TTITLE10=Underwaterman
TTITLE11=Senses
EXTD=YEAR: 1997
EXTT0=
EXTT1=
EXTT2=
EXTT3=
EXTT4=
EXTT5=
EXTT6=
EXTT7=
EXTT8=
EXTT9=
EXTT10=
EXTT11=
PLAYORDER=
